<?xml version="1.0" standalone="no"?>
<!DOCTYPE svg PUBLIC "-//W3C//DTD SVG 20010904//EN"
 "http://www.w3.org/TR/2001/REC-SVG-20010904/DTD/svg10.dtd">
<svg version="1.0" xmlns="http://www.w3.org/2000/svg"
 width="980.000000pt" height="980.000000pt" viewBox="0 0 980.000000 980.000000"
 preserveAspectRatio="xMidYMid meet">
<metadata>
Created by potrace 1.11, written by Peter Selinger 2001-2013
</metadata>
<g transform="translate(0.000000,980.000000) scale(0.100000,-0.100000)"
fill="#000000" stroke="none">
<path d="M235 7531 c-84 -21 -178 -100 -214 -181 -20 -45 -21 -54 -21 -2450
l0 -2405 24 -50 c28 -61 94 -127 156 -158 l45 -22 4675 0 4675 0 45 22 c62 31
128 97 156 158 l24 50 0 2405 0 2405 -24 50 c-28 61 -93 126 -155 157 l-46 23
-4655 2 c-2560 0 -4668 -2 -4685 -6z m7705 -675 c0 -144 44 -326 115 -474 61
-126 133 -229 235 -333 230 -233 477 -348 808 -374 l82 -7 0 -768 0 -768 -87
-7 c-327 -26 -575 -142 -803 -374 -102 -104 -174 -207 -235 -333 -71 -148
-115 -330 -115 -474 l0 -54 -3038 0 -3039 0 -7 98 c-17 257 -108 483 -277 686
-228 275 -514 422 -876 451 l-83 7 0 768 0 768 83 7 c128 10 193 23 314 61
213 68 406 202 562 390 169 203 260 429 277 687 l7 97 3039 0 3038 0 0 -54z"/>
<path d="M4758 6739 c-15 -8 -18 -25 -18 -100 0 -63 -4 -91 -12 -93 -7 -2 -53
-13 -103 -24 -55 -13 -131 -42 -195 -74 -93 -46 -117 -64 -206 -153 -83 -82
-108 -116 -147 -191 -78 -153 -92 -218 -91 -429 0 -166 3 -187 28 -269 77
-255 235 -438 483 -560 48 -24 123 -56 166 -71 l77 -28 0 -344 c0 -335 0 -343
-19 -334 -28 15 -110 127 -138 189 -14 29 -32 80 -41 114 -10 33 -25 66 -34
71 -22 15 -554 -40 -585 -59 -30 -19 -30 -60 2 -192 97 -402 340 -658 709
-749 l106 -27 0 -171 c0 -120 4 -175 12 -183 8 -8 64 -12 184 -12 144 0 175 3
188 16 13 13 16 45 16 190 l0 174 28 6 c237 52 424 151 553 292 108 118 185
263 226 430 26 105 24 391 -5 494 -62 225 -185 384 -383 494 -87 48 -244 113
-346 143 l-73 22 0 321 0 321 26 -24 c36 -34 69 -93 90 -164 23 -78 29 -85 72
-85 77 0 518 62 540 76 28 18 28 30 -2 145 -78 306 -275 517 -567 607 -36 11
-86 23 -112 27 l-47 7 0 88 c0 123 4 120 -201 120 -93 0 -172 -5 -181 -11z
m-20 -1149 l-3 -131 -40 34 c-22 19 -54 59 -70 88 -26 46 -30 65 -30 129 0 91
26 152 94 220 l46 45 3 -127 c1 -70 1 -186 0 -258z m476 -1000 c64 -41 94 -75
125 -140 51 -111 27 -255 -60 -355 -32 -36 -113 -95 -131 -95 -4 0 -8 140 -8
310 0 248 3 310 13 310 7 0 35 -14 61 -30z"/>
</g>
</svg>
