<?xml version="1.0" encoding="utf-8"?>
<!-- Svg Vector Icons : http://www.onlinewebfonts.com/icon -->
<!DOCTYPE svg PUBLIC "-//W3C//DTD SVG 1.1//EN" "http://www.w3.org/Graphics/SVG/1.1/DTD/svg11.dtd">
<svg version="1.1" xmlns="http://www.w3.org/2000/svg" xmlns:xlink="http://www.w3.org/1999/xlink" x="0px" y="0px" viewBox="0 0 1000 1000" enable-background="new 0 0 1000 1000" >
<metadata> Svg Vector Icons : http://www.onlinewebfonts.com/icon </metadata>
<g><g><g><g><path d="M852.2,245.4H147.8H10v137.8v233.5v137.8h137.8h704.4H990V616.8V383.2V245.4H852.2z M951.7,622.5c-48.5,14-79.8,45.3-93.8,93.8H142.1c-14-48.5-45.3-79.8-93.8-93.8v-245c48.5-14,79.8-45.3,93.8-93.8h715.9c14,47.2,45.3,78.5,93.8,93.8V622.5z"/><path d="M500,304.8c-48.5,0-90,19.1-124.4,57.4s-51.7,84.2-51.7,137.8s17.2,99.5,51.7,137.8s75.9,57.4,124.4,57.4c48.5,0,90-19.1,124.4-57.4s51.7-84.2,51.7-137.8s-17.2-99.5-51.7-137.8S548.5,304.8,500,304.8z M574.6,611c-11.5,10.2-30,17.2-55.5,21.1V657h-38.3v-24.9c-24.2-3.8-41.5-9.6-51.7-17.2c-17.9-14-26.8-32.5-26.8-55.5h47.9c1.3,0,2.2,1.3,2.9,3.8s1.6,5.7,2.9,9.6c1.3,3.8,2.6,6.4,3.8,7.7c2.6,2.6,9.6,5.1,21.1,7.7V523c-24.2-6.4-40.8-12.8-49.8-19.1c-16.6-11.5-24.9-28.7-24.9-51.7s8.3-41.5,24.9-55.5c11.5-11.5,28.1-18.5,49.8-21.1V343h38.3v34.5c14,2.6,29.3,9.6,45.9,21.1c7.7,5.1,13.1,9.6,16.3,13.4s6.4,9.9,9.6,18.2s5.4,18.8,6.7,31.6h-49.8c-1.3-16.6-8.9-28.1-23-34.5l-5.7-3.8v61.3l17.2,1.9c23,6.4,38.3,12.8,45.9,19.1c14,10.2,21.1,26.8,21.1,49.8C603.4,577.2,593.8,595.7,574.6,611z"/><path d="M542.1,540.2c-7.7-3.8-15.3-6.4-23-7.7V590l4.8-1c3.2-0.6,5.4-1,6.7-1c14-5.1,21.1-14.7,21.1-28.7C551.7,551.7,548.5,545.3,542.1,540.2z"/><path d="M454.1,448.3c0,7.7,3.8,14,11.5,19.1c2.6,1.3,7.7,3.2,15.3,5.7v-53.6c-6.4,1.3-11.5,3.2-15.3,5.7C457.9,430.5,454.1,438.1,454.1,448.3z"/></g></g></g><g></g><g></g><g></g><g></g><g></g><g></g><g></g><g></g><g></g><g></g><g></g><g></g><g></g><g></g><g></g></g>
</svg>