<?xml version="1.0" encoding="utf-8"?>
<!-- Svg Vector Icons : http://www.onlinewebfonts.com/icon -->
<!DOCTYPE svg PUBLIC "-//W3C//DTD SVG 1.1//EN" "http://www.w3.org/Graphics/SVG/1.1/DTD/svg11.dtd">
<svg version="1.1" xmlns="http://www.w3.org/2000/svg" xmlns:xlink="http://www.w3.org/1999/xlink" x="0px" y="0px" viewBox="0 0 1000 1000" enable-background="new 0 0 1000 1000" xml:space="preserve">
<metadata> Svg Vector Icons : http://www.onlinewebfonts.com/icon </metadata>
<g><g><g><path d="M959,236.6H41c-8.4,0-15.6,3.1-21.8,9.2c-6.1,6.1-9.2,13.4-9.2,21.8v464.9c0,8.4,3.1,15.6,9.2,21.8c6.1,6.1,13.4,9.2,21.8,9.2H959c8.4,0,15.6-3.1,21.8-9.2c6.1-6.1,9.2-13.4,9.2-21.8v-465c0-8.4-3.1-15.6-9.2-21.8C974.7,239.6,967.4,236.6,959,236.6z M928.1,577.7c-34.2,0-63.4,12.1-87.6,36.3c-24.2,24.2-36.3,53.4-36.3,87.6H195.7c0-34.2-12.1-63.4-36.3-87.6c-24.2-24.2-53.4-36.3-87.6-36.3V422.3c34.2,0,63.4-12.1,87.6-36.3c24.2-24.2,36.3-53.4,36.3-87.6h608.5c0,34.2,12.1,63.4,36.3,87.6c24.2,24.2,53.4,36.3,87.6,36.3V577.7z"/><path d="M523.5,459.3v-65.8c7.2,5.4,11.8,13.4,13.9,24.3c0.5,2.7,3.1,4.4,5.7,4.1l50.8-6.6c1.4-0.2,2.6-0.9,3.5-2c0.8-1.1,1.2-2.5,0.9-3.9c-3.6-21.1-12.3-38.2-25.6-50.9c-12.4-11.8-29-19.4-49.2-22.5v-15.4c0-2.8-2.3-5.1-5.1-5.1h-29.1c-2.8,0-5.1,2.3-5.1,5.1v15.3c-22.1,3.1-40.2,12.1-53.9,26.9c-14.7,15.8-22.1,35.6-22.1,58.8c0,22.8,6.6,42.5,19.5,58.5c12.3,15.2,31.3,26.9,56.6,34.6v71.1c-3.7-2.9-7.2-6.5-10.5-10.8c-5.4-7.1-9.1-15.7-11.1-25.6c-0.5-2.6-2.8-4.3-5.6-4.1l-52.4,5.6c-1.4,0.2-2.7,0.9-3.5,2c-0.9,1.1-1.2,2.5-1,3.9c4.2,27.3,14,48.9,29.1,64.1c14.3,14.3,32.7,23.2,54.9,26.7v32.1c0,2.8,2.3,5.1,5.1,5.1h29.1c2.8,0,5.1-2.3,5.1-5.1v-33.2c25.2-4.4,45.3-15,59.8-31.5c15.4-17.5,23.3-39.2,23.3-64.6c0-22.8-6.3-41.9-18.7-56.6C576,479.4,554.9,468.2,523.5,459.3z M547.2,557.5c0,8.9-2.7,16.3-8.2,22.9c-4.2,5-9.3,8.5-15.5,10.6v-64.5c7.6,2.9,13.3,6.6,16.9,11.1C545,543.2,547.2,549.7,547.2,557.5z M468.5,419c0-6.7,2-12.7,6.1-18.3c2.6-3.6,5.8-6.5,9.6-8.7v53.1c-4.3-2.7-7.7-5.8-10.1-9.3C470.3,430.6,468.5,425.1,468.5,419z"/></g></g><g></g><g></g><g></g><g></g><g></g><g></g><g></g><g></g><g></g><g></g><g></g><g></g><g></g><g></g><g></g></g>
</svg>